<svg width="96" height="30" viewBox="0 0 96 30" fill="none" xmlns="http://www.w3.org/2000/svg">
<path d="M11.9639 17.4043C11.9639 16.5742 11.6709 15.9395 11.085 15.5C10.499 15.0508 9.44434 14.582 7.9209 14.0938C6.39746 13.5957 5.19141 13.1074 4.30273 12.6289C1.88086 11.3203 0.669922 9.55762 0.669922 7.34082C0.669922 6.18848 0.992188 5.16309 1.63672 4.26465C2.29102 3.35645 3.22363 2.64844 4.43457 2.14062C5.65527 1.63281 7.02246 1.37891 8.53613 1.37891C10.0596 1.37891 11.417 1.65723 12.6084 2.21387C13.7998 2.76074 14.7227 3.53711 15.377 4.54297C16.041 5.54883 16.373 6.69141 16.373 7.9707H11.9785C11.9785 6.99414 11.6709 6.2373 11.0557 5.7002C10.4404 5.15332 9.57617 4.87988 8.46289 4.87988C7.38867 4.87988 6.55371 5.10938 5.95801 5.56836C5.3623 6.01758 5.06445 6.61328 5.06445 7.35547C5.06445 8.04883 5.41113 8.62988 6.10449 9.09863C6.80762 9.56738 7.83789 10.0068 9.19531 10.417C11.6953 11.1689 13.5166 12.1016 14.6592 13.2148C15.8018 14.3281 16.373 15.7148 16.373 17.375C16.373 19.2207 15.6748 20.6709 14.2783 21.7256C12.8818 22.7705 11.002 23.293 8.63867 23.293C6.99805 23.293 5.50391 22.9951 4.15625 22.3994C2.80859 21.7939 1.77832 20.9688 1.06543 19.9238C0.362305 18.8789 0.0107422 17.668 0.0107422 16.291H4.41992C4.41992 18.6445 5.82617 19.8213 8.63867 19.8213C9.68359 19.8213 10.499 19.6113 11.085 19.1914C11.6709 18.7617 11.9639 18.166 11.9639 17.4043ZM23.2139 8.87891C24.3369 7.53125 25.748 6.85742 27.4473 6.85742C30.8848 6.85742 32.6279 8.85449 32.6768 12.8486V23H28.4434V12.9658C28.4434 12.0576 28.248 11.3887 27.8574 10.959C27.4668 10.5195 26.8174 10.2998 25.9092 10.2998C24.6689 10.2998 23.7705 10.7783 23.2139 11.7354V23H18.9805V0.5H23.2139V8.87891ZM35.2109 14.9287C35.2109 13.3564 35.5137 11.9551 36.1191 10.7246C36.7246 9.49414 37.5938 8.54199 38.7266 7.86816C39.8691 7.19434 41.1924 6.85742 42.6963 6.85742C44.835 6.85742 46.5781 7.51172 47.9258 8.82031C49.2832 10.1289 50.04 11.9062 50.1963 14.1523L50.2256 15.2363C50.2256 17.668 49.5469 19.6211 48.1895 21.0957C46.832 22.5605 45.0107 23.293 42.7256 23.293C40.4404 23.293 38.6143 22.5605 37.2471 21.0957C35.8896 19.6309 35.2109 17.6387 35.2109 15.1191V14.9287ZM39.4443 15.2363C39.4443 16.7402 39.7275 17.8926 40.2939 18.6934C40.8604 19.4844 41.6709 19.8799 42.7256 19.8799C43.751 19.8799 44.5518 19.4893 45.1279 18.708C45.7041 17.917 45.9922 16.6572 45.9922 14.9287C45.9922 13.4541 45.7041 12.3115 45.1279 11.501C44.5518 10.6904 43.7412 10.2852 42.6963 10.2852C41.6611 10.2852 40.8604 10.6904 40.2939 11.501C39.7275 12.3018 39.4443 13.5469 39.4443 15.2363ZM67.1006 15.2217C67.1006 17.6631 66.5439 19.6211 65.4307 21.0957C64.3271 22.5605 62.833 23.293 60.9482 23.293C59.3467 23.293 58.0527 22.7363 57.0664 21.623V29.0938H52.833V7.15039H56.7588L56.9053 8.70312C57.9307 7.47266 59.2686 6.85742 60.9189 6.85742C62.8721 6.85742 64.3906 7.58008 65.4746 9.02539C66.5586 10.4707 67.1006 12.4629 67.1006 15.002V15.2217ZM62.8672 14.9141C62.8672 13.4395 62.6035 12.3018 62.0762 11.501C61.5586 10.7002 60.8018 10.2998 59.8057 10.2998C58.4775 10.2998 57.5645 10.8076 57.0664 11.8232V18.3125C57.584 19.3574 58.5068 19.8799 59.835 19.8799C61.8564 19.8799 62.8672 18.2246 62.8672 14.9141ZM74.2051 23H69.957V0.5H74.2051V23ZM83.624 17.0088L86.5537 7.15039H91.0947L84.7227 25.4609L84.3711 26.2959C83.4238 28.3662 81.8613 29.4014 79.6836 29.4014C79.0684 29.4014 78.4434 29.3086 77.8086 29.123V25.915L78.4531 25.9297C79.2539 25.9297 79.8496 25.8076 80.2402 25.5635C80.6406 25.3193 80.9531 24.9141 81.1777 24.3477L81.6758 23.0439L76.124 7.15039H80.6797L83.624 17.0088ZM90.5234 20.9199C90.5234 20.2461 90.748 19.6992 91.1973 19.2793C91.6562 18.8594 92.2275 18.6494 92.9111 18.6494C93.6045 18.6494 94.1758 18.8594 94.625 19.2793C95.084 19.6992 95.3135 20.2461 95.3135 20.9199C95.3135 21.584 95.0889 22.126 94.6396 22.5459C94.1904 22.9561 93.6143 23.1611 92.9111 23.1611C92.2178 23.1611 91.6465 22.9561 91.1973 22.5459C90.748 22.126 90.5234 21.584 90.5234 20.9199Z" fill="#393D45"/>
</svg>
