<svg width="101" height="30" viewBox="0 0 101 30" fill="none" xmlns="http://www.w3.org/2000/svg">
<path d="M14.72 4.768C14.6133 4.94933 14.5013 5.08267 14.384 5.168C14.2667 5.25333 14.1173 5.296 13.936 5.296C13.744 5.296 13.5253 5.21067 13.28 5.04C13.0347 4.85867 12.7253 4.66133 12.352 4.448C11.9893 4.224 11.552 4.02667 11.04 3.856C10.528 3.67467 9.91467 3.584 9.2 3.584C8.528 3.584 7.936 3.67467 7.424 3.856C6.92267 4.02667 6.50133 4.26667 6.16 4.576C5.81867 4.87466 5.55733 5.232 5.376 5.648C5.20533 6.05333 5.12 6.496 5.12 6.976C5.12 7.59467 5.27467 8.10667 5.584 8.512C5.904 8.91733 6.32 9.264 6.832 9.552C7.344 9.84 7.92533 10.0907 8.576 10.304C9.22667 10.5173 9.89333 10.7413 10.576 10.976C11.2587 11.2 11.9253 11.4613 12.576 11.76C13.2267 12.0587 13.808 12.4373 14.32 12.896C14.832 13.344 15.2427 13.8987 15.552 14.56C15.872 15.2107 16.032 16.0107 16.032 16.96C16.032 17.9733 15.856 18.9227 15.504 19.808C15.1627 20.6933 14.6613 21.4667 14 22.128C13.3387 22.7893 12.5227 23.312 11.552 23.696C10.592 24.0693 9.49867 24.256 8.272 24.256C7.536 24.256 6.82133 24.1813 6.128 24.032C5.43467 23.8933 4.77867 23.696 4.16 23.44C3.54133 23.1733 2.96 22.8587 2.416 22.496C1.88267 22.1227 1.40267 21.7067 0.976 21.248L1.952 19.616C2.048 19.488 2.16 19.3813 2.288 19.296C2.42667 19.2107 2.58133 19.168 2.752 19.168C2.976 19.168 3.232 19.2853 3.52 19.52C3.81867 19.7547 4.18133 20.016 4.608 20.304C5.04533 20.5813 5.56267 20.8373 6.16 21.072C6.768 21.3067 7.504 21.424 8.368 21.424C9.072 21.424 9.70133 21.3333 10.256 21.152C10.8107 20.96 11.2747 20.6933 11.648 20.352C12.032 20 12.3253 19.5787 12.528 19.088C12.7307 18.5973 12.832 18.0533 12.832 17.456C12.832 16.784 12.6773 16.2347 12.368 15.808C12.0587 15.3813 11.648 15.024 11.136 14.736C10.624 14.448 10.0427 14.2027 9.392 14C8.74133 13.7973 8.07467 13.5893 7.392 13.376C6.70933 13.152 6.04267 12.896 5.392 12.608C4.74133 12.32 4.16 11.9467 3.648 11.488C3.136 11.0187 2.72533 10.4373 2.416 9.744C2.10667 9.04 1.952 8.176 1.952 7.152C1.952 6.33067 2.112 5.536 2.432 4.768C2.752 4 3.216 3.32267 3.824 2.736C4.44267 2.13866 5.2 1.664 6.096 1.312C6.992 0.949333 8.016 0.768 9.168 0.768C10.4587 0.768 11.6427 0.975999 12.72 1.392C13.808 1.79733 14.752 2.384 15.552 3.152L14.72 4.768ZM22.437 9.808C23.1197 9.11467 23.8717 8.55467 24.693 8.128C25.525 7.70133 26.4797 7.488 27.557 7.488C28.453 7.488 29.237 7.63733 29.909 7.936C30.5917 8.23467 31.1623 8.656 31.621 9.2C32.0797 9.73333 32.4263 10.3787 32.661 11.136C32.8957 11.8933 33.013 12.7307 33.013 13.648V24H29.877V13.648C29.877 12.4853 29.6103 11.584 29.077 10.944C28.5437 10.2933 27.7277 9.968 26.629 9.968C25.829 9.968 25.077 10.16 24.373 10.544C23.6797 10.9173 23.0343 11.4293 22.437 12.08V24H19.317V0.383999H22.437V9.808ZM44.1513 7.488C45.3459 7.488 46.4233 7.68533 47.3833 8.08C48.3539 8.464 49.1753 9.024 49.8473 9.76C50.5299 10.4853 51.0526 11.3653 51.4153 12.4C51.7779 13.424 51.9593 14.576 51.9593 15.856C51.9593 17.136 51.7779 18.2933 51.4153 19.328C51.0526 20.3627 50.5299 21.2427 49.8473 21.968C49.1753 22.6933 48.3539 23.2533 47.3833 23.648C46.4233 24.032 45.3459 24.224 44.1513 24.224C42.9459 24.224 41.8579 24.032 40.8873 23.648C39.9273 23.2533 39.1059 22.6933 38.4233 21.968C37.7406 21.2427 37.2126 20.3627 36.8393 19.328C36.4766 18.2933 36.2953 17.136 36.2953 15.856C36.2953 14.576 36.4766 13.424 36.8393 12.4C37.2126 11.3653 37.7406 10.4853 38.4233 9.76C39.1059 9.024 39.9273 8.464 40.8873 8.08C41.8579 7.68533 42.9459 7.488 44.1513 7.488ZM44.1513 21.792C45.6873 21.792 46.8339 21.2747 47.5913 20.24C48.3486 19.2053 48.7273 17.7493 48.7273 15.872C48.7273 13.9947 48.3486 12.5387 47.5913 11.504C46.8339 10.4587 45.6873 9.936 44.1513 9.936C42.5939 9.936 41.4313 10.4587 40.6633 11.504C39.9059 12.5387 39.5273 13.9947 39.5273 15.872C39.5273 17.7493 39.9059 19.2053 40.6633 20.24C41.4313 21.2747 42.5939 21.792 44.1513 21.792ZM58.562 20C59.074 20.672 59.6233 21.1413 60.21 21.408C60.8073 21.6747 61.474 21.808 62.21 21.808C63.6393 21.808 64.7433 21.296 65.522 20.272C66.3113 19.2373 66.706 17.7333 66.706 15.76C66.706 14.7253 66.6153 13.8453 66.434 13.12C66.2633 12.384 66.0073 11.7867 65.666 11.328C65.3353 10.8587 64.9247 10.5173 64.434 10.304C63.9433 10.08 63.3887 9.968 62.77 9.968C61.8633 9.968 61.074 10.1707 60.402 10.576C59.7407 10.9813 59.1273 11.5573 58.562 12.304V20ZM58.402 10.176C58.7433 9.77067 59.106 9.40267 59.49 9.072C59.8847 8.73067 60.306 8.44267 60.754 8.208C61.202 7.96267 61.6767 7.776 62.178 7.648C62.69 7.50933 63.234 7.44 63.81 7.44C64.738 7.44 65.5753 7.62133 66.322 7.984C67.0793 8.34667 67.7247 8.88 68.258 9.584C68.7913 10.288 69.202 11.1573 69.49 12.192C69.7887 13.2267 69.938 14.416 69.938 15.76C69.938 16.9653 69.7727 18.0853 69.442 19.12C69.122 20.144 68.658 21.0347 68.05 21.792C67.4527 22.5493 66.7167 23.1467 65.842 23.584C64.978 24.0107 64.002 24.224 62.914 24.224C61.9433 24.224 61.1113 24.064 60.418 23.744C59.7247 23.424 59.106 22.976 58.562 22.4V29.456H55.442V7.744H57.314C57.7513 7.744 58.0233 7.952 58.13 8.368L58.402 10.176ZM76.642 0.383999V24H73.506V0.383999H76.642ZM95.3063 7.744L86.2823 28.72C86.1863 28.9547 86.0583 29.136 85.8983 29.264C85.7383 29.392 85.5036 29.456 85.1943 29.456H82.8743L85.8503 22.976L79.1783 7.744H81.8983C82.1649 7.744 82.3729 7.808 82.5223 7.936C82.6716 8.064 82.7783 8.208 82.8423 8.368L86.9703 18.128C87.0556 18.3733 87.1356 18.624 87.2103 18.88C87.2956 19.1253 87.3649 19.3707 87.4183 19.616C87.4929 19.36 87.5729 19.1093 87.6583 18.864C87.7436 18.608 87.8343 18.3573 87.9303 18.112L91.9143 8.368C91.9889 8.18667 92.1063 8.03733 92.2663 7.92C92.4263 7.80267 92.6076 7.744 92.8103 7.744H95.3063ZM96.055 22.128C96.055 21.84 96.1083 21.568 96.215 21.312C96.3217 21.056 96.4657 20.832 96.647 20.64C96.839 20.448 97.063 20.2987 97.319 20.192C97.575 20.0747 97.8523 20.016 98.151 20.016C98.439 20.016 98.711 20.0747 98.967 20.192C99.223 20.2987 99.447 20.448 99.639 20.64C99.831 20.832 99.9803 21.056 100.087 21.312C100.204 21.568 100.263 21.84 100.263 22.128C100.263 22.4267 100.204 22.704 100.087 22.96C99.9803 23.216 99.831 23.44 99.639 23.632C99.447 23.824 99.223 23.9733 98.967 24.08C98.711 24.1867 98.439 24.24 98.151 24.24C97.8523 24.24 97.575 24.1867 97.319 24.08C97.063 23.9733 96.839 23.824 96.647 23.632C96.4657 23.44 96.3217 23.216 96.215 22.96C96.1083 22.704 96.055 22.4267 96.055 22.128Z" fill="#616467"/>
</svg>
